<?xml version="1.0" encoding="utf-8"?>
<svg data-name="Layer 1" viewBox="0 0 1200 120" preserveAspectRatio="none" xmlns="http://www.w3.org/2000/svg">
  <path d="M 0 29.015 L 0 75.305 C 47.79 97.505 103.59 107.475 158 103.305 C 228.36 97.935 294.33 69.995 364.8 65.805 C 438.64 61.445 512.34 82.685 583 101.065 C 652.27 119.065 721.3 125.945 792.4 114.145 C 828.55 108.145 862.25 96.305 896.85 84.805 C 989.49 54.015 1113 14.725 1200 81.485 L 1200 29.015 L 0 29.015 Z" opacity=".25" class="shape-fill" fill="#1C1C1C" fill-opacity="1" transform="matrix(-1, 0, 0, -1, 1200, 149.014954)"/>
  <path d="M 0 10.011 L 0 25.821 C 13 46.931 27.64 66.871 47.69 82.061 C 99.41 121.281 165 121.011 224.58 101.591 C 255.73 91.441 284.67 75.521 314.25 61.791 C 355.17 42.791 398.98 15.791 445.08 12.121 C 481.34 9.271 515.98 21.541 543.68 43.681 C 575.45 69.071 606 105.681 647.31 116.681 C 687.75 127.471 728.66 109.991 766.44 92.401 C 804.22 74.811 841.6 53.401 883.36 49.351 C 943.09 43.501 996.64 72.231 1052.26 88.191 C 1082.46 96.851 1111.26 94.361 1139.35 80.691 C 1161.78 69.801 1187.35 53.761 1200 31.451 L 1200 10.011 L 0 10.011 Z" opacity=".5" class="shape-fill" fill="#1C1C1C" fill-opacity="1" transform="matrix(-1, 0, 0, -1, 1200, 130.011211)"/>
  <path d="M 0 29.091 L 0 34.721 C 149.93 88.091 314.09 100.411 475.83 71.661 C 518.83 64.021 560.06 51.541 603.44 45.201 C 662.44 36.571 715.92 57.441 769 80.601 C 827.93 106.311 886 124.331 951.2 119.091 C 1037.73 112.091 1123.66 73.381 1200 34.281 L 1200 29.091 L 0 29.091 Z" class="shape-fill" fill="#1C1C1C" fill-opacity="1" transform="matrix(-1, 0, 0, -1, 1200, 149.090965)"/>
</svg>